<?xml version="1.0" encoding="UTF-8" standalone="no"?>
<svg
   width="120"
   height="60"
   version="1.1"
   id="svg332"
   sodipodi:docname="rt-logo.svg"
   inkscape:version="1.1 (c4e8f9e, 2021-05-24)"
   xmlns:inkscape="http://www.inkscape.org/namespaces/inkscape"
   xmlns:sodipodi="http://sodipodi.sourceforge.net/DTD/sodipodi-0.dtd"
   xmlns="http://www.w3.org/2000/svg"
   xmlns:svg="http://www.w3.org/2000/svg">
  <sodipodi:namedview
     id="namedview334"
     pagecolor="#ffffff"
     bordercolor="#666666"
     borderopacity="1.0"
     inkscape:pageshadow="2"
     inkscape:pageopacity="0.0"
     inkscape:pagecheckerboard="0"
     showgrid="false"
     inkscape:zoom="9.025"
     inkscape:cx="68.587258"
     inkscape:cy="35.401662"
     inkscape:window-width="1749"
     inkscape:window-height="1067"
     inkscape:window-x="9"
     inkscape:window-y="26"
     inkscape:window-maximized="0"
     inkscape:current-layer="svg332" />
  <defs
     id="defs324">
    <linearGradient
       x1="7.294"
       y1=".881"
       y2="59.119"
       id="A"
       x2="42.237"
       gradientUnits="userSpaceOnUse">
      <stop
         stop-color="#2383ae"
         offset="0%"
         id="stop319" />
      <stop
         stop-color="#6dd7b9"
         offset="100%"
         id="stop321" />
    </linearGradient>
  </defs>
  <text
     xml:space="preserve"
     style="font-style:normal;font-variant:normal;font-weight:900;font-stretch:normal;font-size:26.6667px;line-height:1.25;font-family:'.SF Compact';-inkscape-font-specification:'.SF Compact weight=557';letter-spacing:5px"
     x="38.681442"
     y="31.91136"
     id="text2469"><tspan
       sodipodi:role="line"
       id="tspan2467"
       x="38.681442"
       y="31.91136"
       style="font-style:normal;font-variant:normal;font-weight:bold;font-stretch:normal;font-size:26.6667px;font-family:KRAFTON_Font;-inkscape-font-specification:'KRAFTON_Font Bold'">rOCK</tspan></text>
  <g
     id="g12"
     transform="matrix(0.00707124,0,0,-0.00707124,6.1869992,46.561145)"
     style="fill:#db2777;fill-opacity:1">
    <path
       d="M 2743.16,4140.3 V 2564.26 c 0,-272.61 -93.71,-502.63 -289.65,-690.05 -195.94,-195.94 -425.96,-289.65 -690.05,-289.65 -264.09,0 -502.63,93.71 -690.05,289.65 -195.937,195.94 -289.648,425.96 -289.648,690.05 V 4140.3 c 0,272.61 93.711,502.63 289.648,690.05 195.94,195.94 425.96,289.65 690.05,289.65 264.09,0 502.63,-93.71 690.05,-289.65 195.94,-187.42 289.65,-425.96 289.65,-690.05 z m 792.29,-1184.16 v -391.88 c 0,-451.52 -153.35,-843.39 -451.52,-1184.16 C 2785.76,1047.85 2410.91,851.91 1967.92,800.801 v -408.93 h 783.77 c 51.11,0 102.22,-17.031 136.29,-59.621 42.6,-42.602 59.64,-85.199 59.64,-136.309 0,-51.121 -17.04,-102.2301 -59.64,-136.3121 C 2845.39,17.0391 2802.8,0 2751.69,0 H 783.762 C 732.648,0 681.527,17.0391 647.453,59.6289 604.859,102.23 587.816,144.82 587.816,195.941 c 0,51.11 17.043,102.231 59.637,136.309 42.598,42.59 85.195,59.621 136.309,59.621 h 783.758 v 408.93 C 1124.53,851.91 749.684,1039.34 451.516,1380.1 153.348,1720.87 0,2112.74 0,2564.26 v 391.88 c 0,51.12 17.0352,102.23 59.6328,136.31 42.5942,42.59 85.1912,59.63 136.3052,59.63 51.121,0 102.234,-17.04 136.308,-59.63 42.594,-42.6 59.637,-85.19 59.637,-136.31 v -391.88 c 0,-374.85 136.301,-707.09 400.398,-971.18 264.089,-264.1 596.339,-400.4 971.179,-400.4 374.85,0 707.09,136.3 971.18,400.4 264.1,264.09 400.4,596.33 400.4,971.18 v 391.88 c 0,51.12 17.04,102.23 59.63,136.31 42.6,42.59 85.2,59.63 136.31,59.63 51.12,0 102.23,-17.04 136.31,-59.63 42.59,-34.08 68.16,-85.19 68.16,-136.31"
       style="fill:#db2777;fill-opacity:1;fill-rule:nonzero;stroke:none"
       id="path14" />
  </g>
  <text
     xml:space="preserve"
     style="font-style:normal;font-variant:normal;font-weight:bold;font-stretch:normal;font-size:11px;line-height:1.25;font-family:sans-serif;-inkscape-font-specification:'sans-serif Bold'"
     x="39.950134"
     y="43.656509"
     id="text10150"><tspan
       sodipodi:role="line"
       id="tspan10148"
       x="39.950134"
       y="43.656509">TEMPLATES</tspan></text>
</svg>
